<svg height="540" viewBox="0 0 960 540" width="960" xmlns="http://www.w3.org/2000/svg"><path d="m0 104 87 54 88-33 87 6 87 32h87l88 5 87 6 87-38 87-32 88 21 87 22v-147h-87-88-87-87-87-88-87-87-87-88-87z" fill="#003223"/><path d="m0 185 87 10 88 17 87 5 87-11 87 33 88-6 87-11 87-37 87-38 88 43h87v-45l-87-22-88-21-87 32-87 38-87-6-88-5h-87l-87-32-87-6-88 33-87-54z" fill="#013b2d"/><path d="m0 228 87 21 88 38 87 22 87-6 87 33 88-38 87-16 87-22 87-5 88 32 87-32v-67h-87l-88-43-87 38-87 37-87 11-88 6-87-33-87 11-87-5-88-17-87-10z" fill="#014537"/><path d="m0 357 87 38 88-48 87 21 87 60 87 21 88-86 87 27 87-38 87 27 88-11 87 33v-148l-87 32-88-32-87 5-87 22-87 16-88 38-87-33-87 6-87-22-88-38-87-21z" fill="#024f42"/><path d="m0 541h87 88 87 87 87 88 87 87 87 88 87v-142l-87-33-88 11-87-27-87 38-87-27-88 86-87-21-87-60-87-21-88 48-87-38z" fill="#02594e"/></svg>